<mxfile host="app.diagrams.net" modified="2023-02-27T12:24:22.576Z" agent="5.0 (Windows)" etag="xl34dWkTHG7Q6t318PyU" version="20.8.23" type="github">
  <diagram name="Page-1" id="aAhCiuHH3Xe1GVfv4I_A">
    <mxGraphModel dx="717" dy="391" grid="1" gridSize="10" guides="1" tooltips="1" connect="1" arrows="1" fold="1" page="1" pageScale="1" pageWidth="850" pageHeight="1100" math="0" shadow="0">
      <root>
        <mxCell id="0" />
        <mxCell id="1" parent="0" />
        <mxCell id="ooogCOXh6T6J2oBmAvg5-1" value="139.162.216.24" style="shape=cylinder3;whiteSpace=wrap;html=1;boundedLbl=1;backgroundOutline=1;size=15;fillColor=#dae8fc;strokeColor=#6c8ebf;fontColor=#000000;" vertex="1" parent="1">
          <mxGeometry x="210" y="300" width="130" height="70" as="geometry" />
        </mxCell>
        <mxCell id="ooogCOXh6T6J2oBmAvg5-2" value="&lt;div&gt;192.168.163.217&lt;/div&gt;" style="shape=cylinder3;whiteSpace=wrap;html=1;boundedLbl=1;backgroundOutline=1;size=15;fillColor=#dae8fc;strokeColor=#6c8ebf;fontColor=#000000;" vertex="1" parent="1">
          <mxGeometry x="487.5" y="300" width="132.5" height="70" as="geometry" />
        </mxCell>
        <mxCell id="ooogCOXh6T6J2oBmAvg5-3" value="&lt;div&gt;AWS RDS&lt;/div&gt;" style="shape=cylinder3;whiteSpace=wrap;html=1;boundedLbl=1;backgroundOutline=1;size=15;fillColor=#ffe6cc;strokeColor=#d79b00;fontColor=#000000;" vertex="1" parent="1">
          <mxGeometry x="210" y="100" width="130" height="70" as="geometry" />
        </mxCell>
        <mxCell id="ooogCOXh6T6J2oBmAvg5-8" style="edgeStyle=orthogonalEdgeStyle;rounded=0;orthogonalLoop=1;jettySize=auto;html=1;fillColor=#dae8fc;strokeColor=#6c8ebf;exitX=0.475;exitY=0;exitDx=0;exitDy=0;exitPerimeter=0;entryX=0.465;entryY=1.036;entryDx=0;entryDy=0;entryPerimeter=0;dashed=1;" edge="1" parent="1" source="ooogCOXh6T6J2oBmAvg5-2" target="ooogCOXh6T6J2oBmAvg5-4">
          <mxGeometry relative="1" as="geometry">
            <mxPoint x="520" y="230" as="targetPoint" />
          </mxGeometry>
        </mxCell>
        <mxCell id="ooogCOXh6T6J2oBmAvg5-4" value="139.162.216.24 CLONE" style="shape=cylinder3;whiteSpace=wrap;html=1;boundedLbl=1;backgroundOutline=1;size=15;fillColor=#f5f5f5;strokeColor=#666666;fontColor=#000000;" vertex="1" parent="1">
          <mxGeometry x="490" y="105" width="130" height="70" as="geometry" />
        </mxCell>
        <mxCell id="ooogCOXh6T6J2oBmAvg5-6" value="" style="endArrow=classic;startArrow=classic;html=1;rounded=0;entryX=0;entryY=0;entryDx=0;entryDy=45;entryPerimeter=0;exitX=1;exitY=0;exitDx=0;exitDy=45;exitPerimeter=0;fillColor=#dae8fc;strokeColor=#6c8ebf;" edge="1" parent="1" source="ooogCOXh6T6J2oBmAvg5-1" target="ooogCOXh6T6J2oBmAvg5-2">
          <mxGeometry width="50" height="50" relative="1" as="geometry">
            <mxPoint x="370" y="360" as="sourcePoint" />
            <mxPoint x="420" y="310" as="targetPoint" />
          </mxGeometry>
        </mxCell>
        <mxCell id="ooogCOXh6T6J2oBmAvg5-11" value="" style="endArrow=classic;html=1;rounded=0;exitX=-0.023;exitY=0.514;exitDx=0;exitDy=0;exitPerimeter=0;fillColor=#f8cecc;strokeColor=#b85450;entryX=1.015;entryY=0.571;entryDx=0;entryDy=0;entryPerimeter=0;dashed=1;" edge="1" parent="1" source="ooogCOXh6T6J2oBmAvg5-4" target="ooogCOXh6T6J2oBmAvg5-3">
          <mxGeometry width="50" height="50" relative="1" as="geometry">
            <mxPoint x="400" y="150" as="sourcePoint" />
            <mxPoint x="370" y="170" as="targetPoint" />
          </mxGeometry>
        </mxCell>
        <mxCell id="ooogCOXh6T6J2oBmAvg5-12" value="AWS Replication" style="text;html=1;align=center;verticalAlign=middle;resizable=0;points=[];autosize=1;strokeColor=none;fillColor=none;" vertex="1" parent="1">
          <mxGeometry x="360" y="105" width="110" height="30" as="geometry" />
        </mxCell>
        <mxCell id="ooogCOXh6T6J2oBmAvg5-13" value="Cloned Replication" style="text;html=1;align=center;verticalAlign=middle;resizable=0;points=[];autosize=1;strokeColor=none;fillColor=none;" vertex="1" parent="1">
          <mxGeometry x="420" y="220" width="130" height="30" as="geometry" />
        </mxCell>
        <mxCell id="ooogCOXh6T6J2oBmAvg5-14" value="Current Replication" style="text;html=1;align=center;verticalAlign=middle;resizable=0;points=[];autosize=1;strokeColor=none;fillColor=none;" vertex="1" parent="1">
          <mxGeometry x="350" y="310" width="130" height="30" as="geometry" />
        </mxCell>
        <mxCell id="ooogCOXh6T6J2oBmAvg5-20" style="edgeStyle=orthogonalEdgeStyle;rounded=0;orthogonalLoop=1;jettySize=auto;html=1;fillColor=#e1d5e7;strokeColor=#9673a6;exitX=0.732;exitY=0.007;exitDx=0;exitDy=0;exitPerimeter=0;entryX=0.465;entryY=1.036;entryDx=0;entryDy=0;entryPerimeter=0;shape=flexArrow;" edge="1" parent="1" source="ooogCOXh6T6J2oBmAvg5-2">
          <mxGeometry relative="1" as="geometry">
            <mxPoint x="585" y="297" as="sourcePoint" />
            <mxPoint x="585" y="175" as="targetPoint" />
          </mxGeometry>
        </mxCell>
        <mxCell id="ooogCOXh6T6J2oBmAvg5-22" value="Copy Data" style="text;html=1;align=center;verticalAlign=middle;resizable=0;points=[];autosize=1;strokeColor=none;fillColor=none;" vertex="1" parent="1">
          <mxGeometry x="585" y="220" width="80" height="30" as="geometry" />
        </mxCell>
      </root>
    </mxGraphModel>
  </diagram>
</mxfile>
